<?xml version="1.0" encoding="UTF-8"?>
<svg width="70px" height="69px" viewBox="0 0 70 69" version="1.1" xmlns="http://www.w3.org/2000/svg" xmlns:xlink="http://www.w3.org/1999/xlink">
    <!-- Generator: Sketch 43.1 (39012) - http://www.bohemiancoding.com/sketch -->
    <title>playstation-pal-1</title>
    <desc>Created with Sketch.</desc>
    <defs></defs>
    <g id="Page-1" stroke="none" stroke-width="1" fill="none" fill-rule="evenodd">
        <g id="playstation-pal-1" transform="translate(1.000000, 1.000000)">
            <polygon id="Shape" fill="#FFFFFF" points="0.521865285 0.321554404 67.3648187 0.321554404 67.3648187 67.0110881 0.521865285 67.0110881"></polygon>
            <polygon id="Shape" stroke="#000000" stroke-width="1.444" points="0.521865285 0.322020725 67.3648187 0.322020725 67.3648187 67.0110881 0.521865285 67.0110881"></polygon>
            <path d="M14.9050777,50.7509326 C15.677772,51.1696891 15.7896891,52.0897409 15.7244041,52.9440415 C15.6684456,53.5852332 15.5103627,54.2637306 14.8962176,54.5980829 C14.3557513,54.8214508 13.6334197,54.7454404 13.0565803,54.7556995 L13.0565803,54.1243005 C13.568601,54.106114 14.1785492,54.235285 14.4392228,53.7246632 C14.6164249,53.1482902 14.6164249,52.4059067 14.4765285,51.8202073 C14.4205699,51.5497409 14.1510363,51.3366321 13.8898964,51.2811399 C13.4245078,51.1598964 12.8695855,51.2345078 12.4041969,51.2256477 L12.4041969,57.3395855 L11.3377202,57.3395855 L11.3377202,50.5741969 L11.5331088,50.5676684 C12.6606736,50.6143005 13.8898964,50.4165803 14.9050777,50.7509326 L14.9050777,50.7509326 Z M32.1734197,50.6021762 L32.1734197,51.2251813 C31.4184456,51.3179793 30.3944041,50.8717098 29.9192228,51.6523316 C29.7326943,52.098601 29.7886528,52.5350777 29.9192228,52.9995337 C30.2726943,53.5012953 30.9712435,53.2793264 31.493057,53.4084974 C31.9029534,53.5012953 32.3123834,53.8081347 32.4429534,54.2170984 C32.7129534,55.0723316 32.6476684,56.0567358 32.2470984,56.8284974 C31.7444041,57.423057 30.8593264,57.321399 30.1048187,57.3302591 L28.9963731,57.2836269 L28.9963731,56.6606218 C29.6114508,56.6606218 30.1976166,56.7534197 30.8033679,56.6606218 C31.0453886,56.586943 31.3251813,56.4656995 31.39,56.1868394 C31.5672021,55.7223834 31.5578756,55.0993782 31.3620207,54.6531088 C31.0080829,54.2166321 30.3468394,54.4026943 29.8539378,54.2907772 C29.4529016,54.2259585 29.0523316,53.9475648 28.8755959,53.5665803 C28.614456,52.8689637 28.6424352,51.9218653 28.9502073,51.252228 C29.4902073,50.3041969 30.6825907,50.5928497 31.6511399,50.5644041 L32.1734197,50.6021762 L32.1734197,50.6021762 Z M34.7894819,51.2251813 L34.7992746,52.098601 L35.9678756,52.113057 L35.9678756,52.7668394 C35.6046114,52.7761658 35.2003109,52.7761658 34.8365803,52.7668394 L34.7890155,52.8232642 L34.7890155,56.084715 C34.8081347,56.2978238 34.7806218,56.5309845 34.9946632,56.6601554 C35.2278238,56.7156477 35.4600518,56.6792746 35.7207254,56.688601 L35.7207254,57.292487 C35.2833161,57.3116062 34.8081347,57.3479793 34.3516062,57.3018135 C34.0909326,57.2369948 33.8297927,57.0695855 33.7556477,56.7907254 L33.718342,56.1131606 L33.718342,51.2149223 L34.7894819,51.2251813 L34.7894819,51.2251813 Z M42.9337824,51.2251813 L42.9431088,52.098601 L44.1126425,52.113057 L44.1126425,52.7668394 C43.7493782,52.7761658 43.3441451,52.7761658 42.9813472,52.7668394 L42.9337824,52.8232642 L42.9337824,56.084715 C42.9529016,56.2978238 42.924456,56.5309845 43.1394301,56.6601554 C43.371658,56.7156477 43.6048187,56.6792746 43.8654922,56.688601 L43.8654922,57.292487 C43.4280829,57.3116062 42.9529016,57.3479793 42.4963731,57.3018135 C42.2347668,57.2369948 41.9745596,57.0695855 41.9008808,56.7907254 L41.8635751,56.1131606 L41.8635751,51.2149223 L42.9337824,51.2251813 Z M22.5331606,52.8792228 C22.6362176,53.0741451 22.6497409,53.2970466 22.6963731,53.5106218 L22.6963731,57.2738342 C21.4820725,57.3013472 20.344715,57.4696891 19.226943,57.1353368 C18.5932124,56.8103109 18.5279275,56.0851813 18.5843523,55.4351295 C18.6314508,54.942228 18.9755959,54.4306736 19.4601036,54.273057 C19.9068394,54.1154404 20.4519689,54.1620725 20.9733161,54.1527461 L20.9733161,54.7281865 C20.7033161,54.8027979 20.3540415,54.7188601 20.0933679,54.8582902 C19.6741451,55.1087047 19.6466321,55.6104663 19.7114508,56.0669948 C19.7585492,56.2619171 19.8788601,56.4656995 20.074715,56.5589637 C20.5401036,56.7445596 21.0950259,56.6708808 21.6163731,56.6237824 L21.6163731,53.7619689 C21.5697409,53.4639896 21.5184456,53.1580829 21.2484456,52.9813472 C20.652487,52.6745078 19.9399482,52.9440415 19.2875648,52.8792228 L19.2875648,52.1825389 C20.0140933,52.1540933 20.7359585,52.098601 21.4345078,52.1540933 C21.8807772,52.2095855 22.337772,52.4329534 22.5331606,52.8792228 L22.5331606,52.8792228 Z M40.4403627,52.8792228 C40.5434197,53.0741451 40.556943,53.2970466 40.6035751,53.5106218 L40.6035751,57.2738342 C39.3902073,57.3013472 38.2519171,57.4696891 37.1336788,57.1353368 C36.5008808,56.8103109 36.4360622,56.0851813 36.4915544,55.4351295 C36.5381865,54.942228 36.8832642,54.4306736 37.3668394,54.273057 C37.8140415,54.1154404 38.3587047,54.1620725 38.8805181,54.1527461 L38.8805181,54.7281865 C38.6109845,54.8027979 38.2612435,54.7188601 38.0005699,54.8582902 C37.5818135,55.1087047 37.5533679,55.6104663 37.6181865,56.0669948 C37.6657513,56.2619171 37.7855959,56.4656995 37.9814508,56.5589637 C38.4468394,56.7445596 39.0017617,56.6708808 39.5235751,56.6237824 L39.5235751,53.7619689 C39.476943,53.4639896 39.4251813,53.1580829 39.1556477,52.9813472 C38.5592228,52.6745078 37.8466839,52.9440415 37.1947668,52.8792228 L37.1947668,52.1825389 C37.9217617,52.1540933 38.6426943,52.098601 39.3417098,52.1540933 C39.7879793,52.2095855 40.2445078,52.4329534 40.4403627,52.8792228 L40.4403627,52.8792228 Z M24.4982383,52.1452332 C24.936114,53.3721244 25.3268912,54.6442487 25.7834197,55.8804663 C26.2959067,54.6638342 26.7239896,53.3903109 27.1903109,52.1452332 C27.4976166,52.098601 27.8329016,52.126114 28.1495337,52.1167876 C28.2054922,52.2095855 28.1029016,52.2744041 28.0935751,52.3672021 C27.0788601,54.8955959 26.0165803,57.4048705 24.936114,59.9132124 L24.1074611,59.9132124 L24.0888083,59.8950259 C24.4334197,59.0034197 24.8060104,58.1197409 25.1692746,57.2272021 L23.278342,52.1452332 C23.3137824,52.1443005 24.4982383,52.1452332 24.4982383,52.1452332 L24.4982383,52.1452332 Z M56.7998446,52.8325907 C57.013886,53.1758031 56.9537306,53.6505181 56.9901036,54.0585492 L56.9901036,57.3573057 L55.9236269,57.3535751 L55.9143005,53.6687047 C55.8578756,53.4080311 55.7841969,53.1296373 55.5235233,52.9626943 C55.0572021,52.7113472 53.9114508,52.9435751 53.9114508,52.9435751 L53.9095855,56.5864767 L53.9179793,57.3498446 L52.8440415,57.3498446 L52.8403109,57.292487 L52.8501036,52.1475648 C52.8501036,52.1475648 54.7037306,52.1359067 55.6069948,52.1447668 C56.0728497,52.2007254 56.5666839,52.3672021 56.7998446,52.8325907 L56.7998446,52.8325907 Z M49.478601,57.3857513 L49.4319689,57.3857513 C48.696114,57.3209326 47.8572021,57.3018135 47.4846114,56.5314508 C47.2640415,56.0105699 47.1539896,55.3749741 47.1586528,54.7379793 L47.1521244,54.7333161 C47.1474611,54.0967876 47.2589119,53.4607254 47.4790155,52.9407772 C47.8516062,52.1694819 48.6905181,52.1503627 49.4254404,52.085544 C49.440829,52.085544 49.4571503,52.085544 49.4720725,52.0864767 L49.4865285,52.0864767 C49.5028497,52.085544 49.5182383,52.085544 49.5340933,52.085544 C50.2699482,52.1503627 51.1079275,52.1694819 51.4805181,52.9407772 C51.7020207,53.4607254 51.8111399,54.0967876 51.8064767,54.7333161 L51.8008808,54.7379793 C51.805544,55.3745078 51.6950259,56.0105699 51.4749223,56.5314508 C51.1023316,57.3018135 50.2634197,57.3209326 49.5275648,57.3857513 L49.478601,57.3857513 Z M49.5051813,56.6788083 C49.7276166,56.6741451 49.9477202,56.6158549 50.1146632,56.5030052 C50.4970466,56.1588601 50.5063731,55.6384456 50.5436788,55.1548705 C50.5378103,55.0158323 50.5353225,54.876672 50.5362176,54.737513 L50.5418135,54.7328497 C50.5418135,54.5878238 50.5427461,54.4479275 50.5492746,54.3154922 C50.5129016,53.8319171 50.5026425,53.3119689 50.1211917,52.9673575 C49.9537824,52.8545078 49.7341451,52.7962176 49.5107772,52.792487 L49.4487565,52.792487 C49.2263212,52.7962176 49.0071503,52.8545078 48.8392746,52.9673575 C48.4578238,53.3115026 48.4475648,53.8319171 48.4102591,54.3154922 C48.4177202,54.4474611 48.4186528,54.5878238 48.4186528,54.7328497 L48.4251813,54.737513 C48.4242487,54.8825389 48.4242487,55.0224352 48.4167876,55.1548705 C48.4531606,55.6384456 48.4634197,56.1583938 48.8458031,56.5030052 C49.0122798,56.6158549 49.2319171,56.6741451 49.455285,56.6788083 L49.5051813,56.6788083 L49.5051813,56.6788083 Z M16.5721762,50.5560104 L17.6018135,50.5560104 L17.6018135,57.3428497 L16.5721762,57.3428497 L16.5721762,50.5560104 Z M45.0266321,52.1540933 L46.125285,52.1540933 L46.125285,57.333057 L45.0266321,57.333057 L45.0266321,52.1540933 Z M44.9851295,50.556943 L46.0697927,50.556943 L46.0697927,51.4937824 L44.9851295,51.4937824 L44.9851295,50.556943 Z" id="Shape" fill="#000000" fill-rule="nonzero"></path>
            <polygon id="Shape" fill="#3B73B8" points="35.6904145 31.0036269 28.007772 28.7111917 23.8244041 30.1917617 31.4618135 32.5252332"></polygon>
            <polygon id="Shape" fill="#ECB731" points="27.5778238 44.5409326 36.2639896 47.4064767 43.9592228 44.6337306 35.3187565 41.993886 27.5778238 44.5409326"></polygon>
            <path d="M48.2535751,37.7368394 L35.3187565,41.993886 L43.9592228,44.6341969 L56.408601,40.1486528 L48.3874093,37.6976684 L48.2535751,37.7368394 L48.2535751,37.7368394 Z M36.2248187,33.9810881 C35.9142487,34.0850777 35.6792228,34.1699482 35.5463212,34.2268394 C34.5418653,34.6563212 26.7160622,37.2350777 26.7160622,37.2350777 C26.7160622,37.2350777 25.2765285,37.8268394 23.6602591,38.4311917 L31.2720207,40.7567358 C34.5260104,39.6356995 40.4772021,37.583886 44.0189119,36.3621244 L36.2248187,33.9810881 L36.2248187,33.9810881 Z" id="Shape" fill="#43AD9C"></path>
            <path d="M59.0946114,34.2268394 C54.5717617,31.6480829 47.6067876,31.5049223 45.4537824,31.6480829 C43.5856995,31.7725907 38.2584456,33.2983938 36.2248187,33.9810881 L44.0193782,36.3625907 L46.8900518,35.3725907 C46.8900518,35.3725907 49.4450259,34.4007772 51.986943,35.0867358 C54.5782902,35.785285 50.2037306,37.1651295 48.3874093,37.6976684 L56.408601,40.1486528 L56.9406736,39.9574611 C56.9406736,39.9574611 63.6179275,36.8051295 59.0946114,34.2268394 Z" id="Shape" fill="#3B73B8"></path>
            <path d="M22.6236269,38.8112435 C20.5606218,39.5480311 18.6118653,40.0749741 17.0958549,39.5279793 C14.5189637,38.5976684 17.2800518,37.5265285 18.9364249,36.9883938 L11.4566321,34.7029534 C9.17958549,36.0021244 3.22792746,40.1127461 14.6546632,42.2498964 C23.8439896,43.9692228 27.1464767,42.1785492 29.228601,41.4622798 L31.2720207,40.7581347 L23.6602591,38.4325907 C23.3184456,38.5594301 22.969171,38.6876684 22.6236269,38.8112435 L22.6236269,38.8112435 Z" id="Shape" fill="#ECB731"></path>
            <path d="M19.9679275,36.6624352 L31.4618135,32.5252332 L23.8244041,30.1917617 L12.2139378,34.2986528 C12.2139378,34.2986528 11.9075648,34.445544 11.4570984,34.702487 L18.9368912,36.9879275 C19.4498446,36.8219171 19.8574093,36.7062694 19.9679275,36.6624352 Z" id="Shape" fill="#43AD9C"></path>
            <path d="M27.5778238,6.65 L27.5778238,44.5409326 L36.264456,47.4064767 L36.264456,15.1020725 C36.264456,13.7413472 39.3948705,13.0073575 39.463886,15.8901554 C39.5347668,18.8983938 39.463886,29.6429016 39.463886,29.6429016 C39.463886,29.6429016 43.8202591,31.861658 46.6027979,29.5710881 C49.4744041,27.2073057 51.9155959,18.8983938 46.3878238,13.8131606 C46.3878238,13.8131606 43.9671503,10.9443523 34.6850259,8.51248705 L27.5778238,6.65 L27.5778238,6.65 Z" id="Shape" fill="#CC2229"></path>
        </g>
    </g>
</svg>